<?xml version="1.0" standalone="no"?>
<!DOCTYPE svg PUBLIC "-//W3C//DTD SVG 20010904//EN"
 "http://www.w3.org/TR/2001/REC-SVG-20010904/DTD/svg10.dtd">
<svg version="1.0" xmlns="http://www.w3.org/2000/svg"
 width="454.000000pt" height="454.000000pt" viewBox="0 0 454.000000 454.000000"
 preserveAspectRatio="xMidYMid meet">
<metadata>
Created by potrace 1.11, written by Peter Selinger 2001-2013
</metadata>
<g transform="translate(0.000000,454.000000) scale(0.100000,-0.100000)"
fill="#000000" stroke="none">
<path d="M3865 2985 c-22 -8 -41 -15 -42 -15 -1 0 -14 -17 -28 -37 -26 -39
-32 -82 -15 -99 8 -8 1 -19 -22 -36 -117 -90 -238 -251 -238 -318 0 -20 -6
-43 -12 -52 -53 -67 -383 -241 -608 -321 -254 -91 -556 -150 -750 -146 -92 2
-211 18 -291 39 -49 13 -107 -1 -136 -32 -11 -13 -51 -71 -87 -130 -51 -81
-81 -118 -123 -150 -72 -55 -83 -72 -61 -95 31 -30 79 3 139 94 95 146 117
157 237 119 216 -68 507 -51 836 49 294 89 510 200 811 415 190 136 217 150
296 150 56 0 64 3 94 33 40 40 51 77 35 116 -13 33 -60 56 -144 72 -102 19
-87 39 104 130 135 65 154 79 177 123 18 34 11 66 -17 84 -34 21 -110 24 -155
7z m-197 -417 c19 -19 14 -56 -10 -72 -56 -36 -119 25 -68 66 26 21 61 23 78
6z m159 -33 c27 -24 28 -25 9 -40 -36 -28 -106 -12 -106 23 0 46 54 55 97 17z"/>
<path d="M2162 2498 c-16 -16 -16 -150 0 -166 19 -19 99 -14 141 8 44 24 47
24 47 6 0 -34 91 -37 114 -4 20 28 20 45 2 80 -9 17 -11 30 -5 34 18 10 -1 22
-36 22 -23 0 -35 -5 -35 -13 0 -18 17 -28 25 -15 5 8 11 8 20 0 11 -9 12 -16
3 -30 -9 -14 -9 -22 1 -34 12 -14 9 -16 -30 -15 -24 1 -37 3 -27 6 14 4 33 32
26 38 -2 1 -34 9 -73 18 -73 16 -86 13 -105 -23 -8 -16 -4 -17 35 -12 27 3 45
1 45 -6 0 -12 -34 -22 -82 -22 l-38 0 0 64 c0 66 -8 84 -28 64z"/>
<path d="M2789 2454 c-13 -15 -2 -21 39 -22 25 -1 32 3 30 15 -4 19 -55 24
-69 7z"/>
<path d="M1971 2424 c-12 -15 -21 -39 -21 -55 0 -25 4 -28 45 -35 63 -9 46
-24 -29 -24 -75 0 -101 15 -94 54 8 41 -15 26 -26 -18 -8 -32 -7 -40 12 -59
23 -23 19 -22 194 -18 37 0 50 6 67 27 23 30 27 70 9 109 -13 29 -23 32 -37 8
-7 -14 -4 -24 12 -41 l22 -24 -24 -19 c-31 -25 -41 -24 -41 6 0 26 -25 45 -60
45 -40 0 -14 25 28 28 44 3 50 10 30 30 -21 21 -65 14 -87 -14z"/>
<path d="M2927 2432 c-20 -22 -24 -50 -4 -34 7 6 26 7 47 3 l35 -8 -28 -12
c-47 -19 -95 -14 -108 11 l-12 22 -8 -22 c-12 -31 -44 -27 -69 8 -14 20 -30
30 -47 30 -18 0 -28 -8 -36 -30 -9 -23 -17 -30 -39 -30 -15 0 -28 5 -28 10 0
6 5 10 10 10 18 0 11 29 -9 40 -13 7 -28 7 -45 0 -28 -10 -32 -20 -15 -37 7
-7 1 -14 -21 -23 -35 -15 -64 -62 -55 -91 4 -10 19 -26 35 -34 33 -17 116 -20
125 -5 4 6 -9 10 -32 10 -21 0 -49 7 -61 16 -33 23 -28 75 10 95 16 8 24 6 43
-15 25 -27 63 -34 83 -14 8 8 15 8 24 1 17 -13 116 -15 124 -2 4 6 11 6 20 -2
20 -17 97 -6 130 19 l28 20 11 -22 c12 -23 70 -35 88 -17 8 8 16 6 29 -6 22
-20 51 -8 56 21 14 70 -67 117 -84 50 -5 -20 -12 -24 -43 -23 -20 1 -29 3 -19
6 16 4 33 32 24 40 -3 3 -132 33 -142 33 0 0 -8 -8 -17 -18z"/>
<path d="M875 2384 c-33 -78 -86 -329 -96 -453 -14 -183 10 -283 75 -306 61
-21 142 68 153 169 4 34 1 45 -20 64 -27 25 -27 25 -57 -33 -14 -27 -42 -36
-60 -18 -16 16 -9 216 14 398 26 202 23 256 -9 179z"/>
<path d="M2304 2299 c-10 -17 13 -36 27 -22 12 12 4 33 -11 33 -5 0 -12 -5
-16 -11z"/>
<path d="M2984 2299 c-10 -17 13 -36 27 -22 12 12 4 33 -11 33 -5 0 -12 -5
-16 -11z"/>
<path d="M1308 2033 c-29 -30 -78 -128 -78 -154 0 -24 24 -40 70 -46 22 -3 40
-8 40 -12 0 -16 -53 -66 -137 -129 -51 -38 -90 -72 -86 -75 3 -3 19 -4 37 -1
140 25 212 89 255 228 11 37 21 90 21 116 0 91 -67 131 -122 73z"/>
<path d="M555 2001 c-32 -52 -79 -163 -73 -169 5 -5 -3 -29 -17 -55 -35 -62
-33 -134 6 -156 79 -44 188 89 197 242 4 67 4 67 -36 107 -39 39 -65 49 -77
31z m9 -212 c32 -25 33 -43 4 -63 -29 -21 -67 -20 -75 0 -6 17 21 84 35 84 5
0 21 -9 36 -21z"/>
</g>
</svg>
