<?xml version="1.0" standalone="no"?>
<!DOCTYPE svg PUBLIC "-//W3C//DTD SVG 20010904//EN"
 "http://www.w3.org/TR/2001/REC-SVG-20010904/DTD/svg10.dtd">
<svg version="1.0" xmlns="http://www.w3.org/2000/svg"
 width="300.000000pt" height="300.000000pt" viewBox="0 0 300.000000 300.000000"
 preserveAspectRatio="xMidYMid meet">
<metadata>
Created by potrace 1.11, written by Peter Selinger 2001-2013
</metadata>
<g transform="translate(0.000000,300.000000) scale(0.100000,-0.100000)"
fill="#000000" stroke="none">
<path d="M2553 1969 c-38 -11 -68 -59 -59 -95 4 -13 3 -24 -2 -24 -15 0 -113
-104 -141 -150 -15 -25 -27 -54 -25 -65 2 -11 0 -25 -4 -31 -12 -18 -123 -90
-192 -123 -35 -18 -70 -37 -77 -43 -7 -6 -13 -8 -13 -4 0 4 -12 0 -27 -8 -35
-18 -235 -86 -271 -92 -15 -3 -44 -9 -65 -15 -120 -32 -396 -32 -456 0 -10 6
-23 6 -31 1 -8 -5 -17 -7 -21 -4 -9 5 -51 -46 -102 -126 -23 -36 -51 -69 -62
-74 -31 -14 -59 -56 -46 -69 19 -19 57 8 99 71 59 86 72 93 145 70 66 -20 202
-37 227 -28 3 1 25 3 50 4 39 2 77 8 153 22 10 2 28 6 40 10 12 5 27 8 32 9
23 2 135 39 214 72 116 48 223 109 361 207 141 100 155 107 205 110 22 1 48 6
58 10 27 13 46 57 36 84 -9 23 -62 52 -96 52 -10 0 -25 5 -33 10 -19 12 4 29
115 85 116 58 144 110 73 134 -36 13 -41 13 -85 0z m-128 -299 c0 -20 -6 -26
-28 -28 -32 -4 -46 20 -26 44 19 24 54 14 54 -16z m107 -2 c10 -17 10 -28 -1
-28 -5 0 -16 -3 -24 -6 -21 -8 -51 25 -37 41 13 16 50 11 62 -7z"/>
<path d="M1427 1643 c-4 -3 -7 -25 -8 -47 0 -36 -2 -38 -10 -18 -5 13 -13 20
-19 17 -14 -9 -13 -32 3 -39 8 -3 6 -10 -8 -21 -19 -15 -20 -15 -23 4 -2 12
-14 24 -28 27 -30 8 -21 24 14 24 24 0 25 1 10 17 -16 15 -19 15 -42 -1 -32
-20 -36 -66 -7 -66 11 0 23 -4 26 -10 8 -13 -60 -13 -85 0 -11 6 -17 17 -14
25 4 8 2 15 -4 15 -17 0 -20 -38 -5 -60 14 -19 22 -21 90 -17 75 4 92 13 93
47 0 11 3 11 12 2 7 -7 30 -12 53 -12 23 0 46 5 53 12 9 9 15 9 24 0 17 -17
63 -15 78 3 7 8 9 23 4 37 -4 13 -7 30 -6 38 2 10 -6 15 -23 15 -14 0 -25 -6
-25 -14 0 -8 6 -11 16 -7 13 5 15 1 12 -19 -3 -13 0 -26 6 -29 6 -2 -2 -4 -19
-4 -16 0 -24 2 -17 5 13 5 17 34 5 31 -5 -1 -25 1 -46 6 -25 5 -43 3 -53 -5
-23 -19 -16 -26 19 -22 24 3 29 2 17 -6 -21 -15 -70 -14 -71 2 -1 6 0 27 1 45
1 30 -8 41 -23 25z"/>
<path d="M1846 1623 c-3 -3 -3 -10 0 -14 7 -12 44 -12 44 0 0 10 -36 21 -44
14z"/>
<path d="M1707 1602 c-12 -2 -16 -9 -12 -23 4 -13 2 -19 -8 -19 -8 0 -22 -11
-31 -25 -15 -23 -15 -26 4 -45 14 -14 32 -20 63 -19 40 1 40 1 11 8 -17 4 -36
11 -42 15 -17 10 -15 41 3 56 11 9 18 8 36 -9 12 -11 27 -17 33 -14 6 4 53 6
105 5 73 -2 98 1 111 13 16 14 18 14 24 0 4 -12 16 -16 39 -14 18 2 38 0 45
-5 17 -11 32 2 32 28 0 42 -43 63 -55 26 -8 -25 -33 -27 -31 -2 2 24 -91 43
-105 21 -12 -20 -11 -35 2 -22 6 6 20 8 31 5 15 -4 17 -7 6 -13 -22 -14 -68
-10 -74 6 -6 14 -8 13 -19 -2 -13 -17 -15 -17 -35 5 -11 12 -27 22 -34 22 -17
0 -38 -25 -29 -33 3 -4 -3 -7 -14 -7 -16 0 -20 5 -16 19 5 20 -11 30 -40 23z"/>
<path d="M571 1555 c-7 -19 -14 -47 -17 -61 -3 -14 -12 -56 -21 -93 -19 -81
-26 -241 -11 -282 6 -17 21 -37 34 -45 21 -14 26 -14 54 2 39 23 72 113 50
138 -15 19 -40 21 -40 3 0 -19 -21 -36 -37 -30 -11 4 -14 25 -12 93 1 49 5
110 9 137 14 90 20 173 12 173 -4 0 -14 -16 -21 -35z"/>
<path d="M1520 1510 c0 -5 7 -10 16 -10 8 0 12 5 9 10 -3 6 -10 10 -16 10 -5
0 -9 -4 -9 -10z"/>
<path d="M1970 1510 c0 -5 7 -10 16 -10 8 0 12 5 9 10 -3 6 -10 10 -16 10 -5
0 -9 -4 -9 -10z"/>
<path d="M860 1332 c-21 -26 -50 -86 -50 -103 0 -4 19 -14 41 -21 l41 -12 -39
-35 c-22 -20 -56 -47 -76 -61 -44 -30 -47 -41 -9 -36 100 13 166 93 177 213 6
74 -45 107 -85 55z"/>
<path d="M341 1267 c-13 -28 -24 -56 -23 -60 1 -4 -5 -21 -13 -38 -9 -17 -15
-44 -13 -61 7 -67 72 -63 113 6 43 73 49 137 19 180 -31 41 -56 34 -83 -27z
m33 -93 c22 -21 20 -33 -6 -43 -41 -15 -52 -2 -33 42 9 21 19 22 39 1z"/>
</g>
</svg>
