<svg viewBox="0 0 300 225" xmlns="http://www.w3.org/2000/svg" fill="#fe061d"><path d="M251.85 66.73c3.41-1.65 7.33-3.46 11.16-2.09 2.2.39 4.68 1.78 4.69 4.32-.64 2.51-2.18 4.84-4.37 6.26-5 2.93-10.56 4.75-15.59 7.6-1.63 1.09-3.5 2.16-4.03 4.2 4.37.84 8.77 1.69 12.88 3.5 2.76 3.07 1.94 7.46-1.07 10.03-3.24 3.98-8.92.46-12.78 3.17-10.14 5.57-18.64 13.7-28.72 19.37-16.03 9.85-33.82 16.7-52.2 20.61-15.08 2.94-31.18 3.95-45.68-2.05-10.17.38-9.86 14.61-19.12 16.8-.79-.85-1.57-1.7-2.34-2.57 2.02-2.72 4.84-4.62 7.57-6.55 5.35-5.22 7.36-13.05 12.92-18.08 4.72-3.09 9.92.21 14.9.6 10.91 2.26 22.11 1 32.99-.78 14.66-2.7 28.93-7.29 42.54-13.37 9.01-4.44 18.3-8.65 25.98-15.26 1.47-1.59.9-3.93 1.03-5.88 2.29-5.39 6.03-9.9 10.13-14 2.44-2.25 4.85-4.54 7.5-6.54-2.66-3.04-.14-6.57 1.61-9.29m-15.9 27.5c.09 1.11.21 2.22.36 3.33 1.26.34 2.52.71 3.77 1.09 1.09-.74 2.32-1.38 3.11-2.48.31-1.62-.6-3.05-1.3-4.41-2.16.29-4.63.45-5.94 2.47m12.1-1.02c-.92 1.13-2.09 2.37-1.51 3.96 2.08 2.05 6.27 2.08 7.91-.38-.47-1.67-2.55-2.54-3.88-3.57-.63 0-1.89-.01-2.52-.01z"/><path d="M142.11 99.05c-.27-1.52 1.55-1.74 2.5-2.28.15 3.05.14 6.11.13 9.16 2.91-.08 6.25.43 8.5-1.91-2.38-.22-4.82-.23-6.98.93 1.05-1.54 2.14-3.06 3.33-4.49 3.31 1.14 6.75 1.8 10.18 2.46-.85 1.4-2.27 2.18-3.71 2.85 1.95.01 3.9.11 5.86.26-.96-1.22-2.47-3.72-.06-4.23 1.58-.49 1.44 2.39 2.38 3.11-.71 1.53-1.52 3.01-2.39 4.45-2.18-.16-4.36-.39-6.51-.76-.06-.61-.16-1.85-.22-2.47-1.21.76-2.4 1.56-3.58 2.36-2.61.6-5.27.8-7.93.84-2.92-2.68-1.44-6.82-1.5-10.28z"/><path d="M158.14 98.52c1.5.09 3.01.12 4.51.27.14.79-.13 1.45-.82 1.97-.41-.08-1.23-.25-1.63-.33-.58.13-1.73.39-2.31.52.06-.61.19-1.83.25-2.43zM184.89 99.55c1.29.08 2.59.13 3.9.17.08.54.25 1.61.33 2.15-1.77-.03-3.53-.1-5.3-.15.36-.72.71-1.44 1.07-2.17zM131.61 100.55c1.25.02 2.49.04 3.74.06.64.83 1.27 1.66 1.91 2.5-2.39.34-5.61-.72-6.99 1.94.82.04 2.46.11 3.29.15.88.52 1.76 1.04 2.63 1.58l-.04 3.44c1.55-.84 3.02-1.82 4.37-2.95-1.06-1-2.12-1.99-3.19-2.98.8-.97 1.59-1.94 2.38-2.92.87 2.36 2.1 4.86 1.62 7.45-.69 1.38-1.72 2.54-2.7 3.72-5.03-.82-10.06 1.76-14.96-.2l-2.22-2.16c.04-2.32.74-4.55 2.15-6.4 0 1.58-.02 3.17-.07 4.76 3.54 1.89 8.07 1.91 11.73.39-2.17-.39-4.32-.83-6.49-1.15-.36-2.81.89-5.29 2.84-7.23z"/><path d="M191.7 104.81c.62-1.74 1.75-3.19 3.07-4.45 3.19 1.61 7.44.69 9.97 3.45-1.29.7-2.58 1.37-3.89 2.02 1.64-.01 3.27-.01 4.92.02.67-1.37 1.35-2.73 2.07-4.07.86.27 2.56.81 3.41 1.08 1 2.34 1.83 7.19-1.94 6.96-.5-.42-1.5-1.25-2-1.67-.64.34-1.28.69-1.91 1.04-.95.02-2.85.07-3.8.09-.64-1.08-1.22-2.18-1.76-3.3-1.13.86-2.26 1.71-3.38 2.59-2.13.4-4.29.65-6.45.71-.3-.28-.9-.85-1.2-1.13-1.53 1.14-3.4 1-5.16.64-1.73.5-3.39.14-4.8-.95-.42.4-1.24 1.22-1.65 1.62-2.36-.36-4.78-1-5.53-3.58-3.28.1-5.48 5-2.5 6.95 1.98 1.47 4.66.81 6.94 1.26-3.79 2.32-9.88 1.31-11.9-2.99.71-1.4 1.41-2.8 2.11-4.21 1.44-.63 2.87-1.28 4.31-1.92-.5-.51-1.49-1.53-1.98-2.05 1.95-.82 4.3-2.64 6.1-.42.77 1.28.37 2.1-1.18 2.47.12.24.35.71.47.94 1.14 0 2.29-.01 3.44-.03.47-1.31.96-2.63 1.44-3.94.81-.02 2.44-.07 3.25-.09 1.1 1.43 2.16 2.89 3.27 4.33 1.95-.12 3.1-1.24 3.24-3.23.6.99 1.21 1.98 1.83 2.98 2.86.18 5.66-.34 8.24-1.61-1.56-.36-3.13-.67-4.7-.98-.78.49-1.57.98-2.35 1.47zM55.42 113.23c.63-3.92 1.88-7.76 3.92-11.19 1.18 2.19.27 4.61.12 6.91-1.29 11.52-4.08 23.22-1.87 34.81 3.82 1.03 4.4-3.28 5.93-5.65 1.13 1.09 2.26 2.19 3.38 3.29.05 3.25-1.13 6.28-2.38 9.22-.5.82-1 1.64-1.49 2.48-2.65 2.19-6.25 3.53-9.12.88-2.69-5.2-3.59-11.25-2.44-16.99-.53-8.14 2.28-15.91 3.95-23.76zM152.19 110.14c1.29-1.54 3.55.85 2.2 2.17-1.3 1.4-3.61-.84-2.2-2.17z"/><path d="M198.51 112.63c-2-.32-1.65-2.27-.46-3.44.83 1.14 2.56 2.54.46 3.44zM88.23 126.34l3.45.03c.98 1.26 2.38 2.37 2.74 3.99.75 5.65-1.18 11.28-3.64 16.27-3.4 6.42-10.73 9.34-17.7 9.39 4.91-5.17 12.09-7.97 15.89-14.21-2.66-.35-7.64.09-7.72-3.67 1.24-4.45 3.43-8.75 6.98-11.8zM35.94 131.14c.51-.46 1.52-1.4 2.02-1.86 2.64 1.52 4.9 3.62 6.43 6.27.54 7.09-1.97 14.67-7.39 19.37-2.55 2.11-5.77 1.23-8.02-.8-.48-4.41.7-8.66 3.54-12.08-.34-.33-1.02-1-1.37-1.34 1.98-2.98 3.67-6.15 4.79-9.56m-1.53 11.61c-.68 2.05-3.52 5-1.08 6.8 2.61.54 5.22-1 6.09-3.5-1.52-1.32-3.12-2.57-5.01-3.3z"/></svg>