<svg viewBox="0 0 300 225" version="1.1" xmlns="http://www.w3.org/2000/svg" fill="#fe061d" >
<g>
<path d=" M 251.85 66.73 C 255.26 65.08 259.18 63.27 263.01 64.64 C 265.21 65.03 267.69 66.42 267.70 68.96 C 267.06 71.47 265.52 73.80 263.33 75.22 C 258.33 78.15 252.77 79.97 247.74 82.82 C 246.11 83.91 244.24 84.98 243.71 87.02 C 248.08 87.86 252.48 88.71 256.59 90.52 C 259.35 93.59 258.53 97.98 255.52 100.55 C 252.28 104.53 246.60 101.01 242.74 103.72 C 232.60 109.29 224.10 117.42 214.02 123.09 C 197.99 132.94 180.20 139.79 161.82 143.70 C 146.74 146.64 130.64 147.65 116.14 141.65 C 105.97 142.03 106.28 156.26 97.02 158.45 C 96.23 157.60 95.45 156.75 94.68 155.88 C 96.70 153.16 99.52 151.26 102.25 149.33 C 107.60 144.11 109.61 136.28 115.17 131.25 C 119.89 128.16 125.09 131.46 130.07 131.85 C 140.98 134.11 152.18 132.85 163.06 131.07 C 177.72 128.37 191.99 123.78 205.60 117.70 C 214.61 113.26 223.90 109.05 231.58 102.44 C 233.05 100.85 232.48 98.51 232.61 96.56 C 234.90 91.17 238.64 86.66 242.74 82.56 C 245.18 80.31 247.59 78.02 250.24 76.02 C 247.58 72.98 250.10 69.45 251.85 66.73 M 235.95 94.23 C 236.04 95.34 236.16 96.45 236.31 97.56 C 237.57 97.90 238.83 98.27 240.08 98.65 C 241.17 97.91 242.40 97.27 243.19 96.17 C 243.50 94.55 242.59 93.12 241.89 91.76 C 239.73 92.05 237.26 92.21 235.95 94.23 M 248.05 93.21 C 247.13 94.34 245.96 95.58 246.54 97.17 C 248.62 99.22 252.81 99.25 254.45 96.79 C 253.98 95.12 251.90 94.25 250.57 93.22 C 249.94 93.22 248.68 93.21 248.05 93.21 Z" />
<path d=" M 142.11 99.05 C 141.84 97.53 143.66 97.31 144.61 96.77 C 144.76 99.82 144.75 102.88 144.74 105.93 C 147.65 105.85 150.99 106.36 153.24 104.02 C 150.86 103.80 148.42 103.79 146.26 104.95 C 147.31 103.41 148.40 101.89 149.59 100.46 C 152.90 101.60 156.34 102.26 159.77 102.92 C 158.92 104.32 157.50 105.10 156.06 105.77 C 158.01 105.78 159.96 105.88 161.92 106.03 C 160.96 104.81 159.45 102.31 161.86 101.80 C 163.44 101.31 163.30 104.19 164.24 104.91 C 163.53 106.44 162.72 107.92 161.85 109.36 C 159.67 109.20 157.49 108.97 155.34 108.60 C 155.28 107.99 155.18 106.75 155.12 106.13 C 153.91 106.89 152.72 107.69 151.54 108.49 C 148.93 109.09 146.27 109.29 143.61 109.33 C 140.69 106.65 142.17 102.51 142.11 99.05 Z" />
<path d=" M 158.14 98.52 C 159.64 98.61 161.15 98.64 162.65 98.79 C 162.79 99.58 162.52 100.24 161.83 100.76 C 161.42 100.68 160.60 100.51 160.20 100.43 C 159.62 100.56 158.47 100.82 157.89 100.95 C 157.95 100.34 158.08 99.12 158.14 98.52 Z" />
<path d=" M 184.89 99.55 C 186.18 99.63 187.48 99.68 188.79 99.72 C 188.87 100.26 189.04 101.33 189.12 101.87 C 187.35 101.84 185.59 101.77 183.82 101.72 C 184.18 101.00 184.53 100.28 184.89 99.55 Z" />
<path d=" M 131.61 100.55 C 132.86 100.57 134.10 100.59 135.35 100.61 C 135.99 101.44 136.62 102.27 137.26 103.11 C 134.87 103.45 131.65 102.39 130.27 105.05 C 131.09 105.09 132.73 105.16 133.56 105.20 C 134.44 105.72 135.32 106.24 136.19 106.78 C 136.18 107.64 136.16 109.36 136.15 110.22 C 137.70 109.38 139.17 108.40 140.52 107.27 C 139.46 106.27 138.40 105.28 137.33 104.29 C 138.13 103.32 138.92 102.35 139.71 101.37 C 140.58 103.73 141.81 106.23 141.33 108.82 C 140.64 110.20 139.61 111.36 138.63 112.54 C 133.60 111.72 128.57 114.30 123.67 112.34 C 122.93 111.62 122.19 110.90 121.45 110.18 C 121.49 107.86 122.19 105.63 123.60 103.78 C 123.60 105.36 123.58 106.95 123.53 108.54 C 127.07 110.43 131.60 110.45 135.26 108.93 C 133.09 108.54 130.94 108.10 128.77 107.78 C 128.41 104.97 129.66 102.49 131.61 100.55 Z" />
<path d=" M 191.70 104.81 C 192.32 103.07 193.45 101.62 194.77 100.36 C 197.96 101.97 202.21 101.05 204.74 103.81 C 203.45 104.51 202.16 105.18 200.85 105.83 C 202.49 105.82 204.12 105.82 205.77 105.85 C 206.44 104.48 207.12 103.12 207.84 101.78 C 208.70 102.05 210.40 102.59 211.25 102.86 C 212.25 105.20 213.08 110.05 209.31 109.82 C 208.81 109.40 207.81 108.57 207.31 108.15 C 206.67 108.49 206.03 108.84 205.40 109.19 C 204.45 109.21 202.55 109.26 201.60 109.28 C 200.96 108.20 200.38 107.10 199.84 105.98 C 198.71 106.84 197.58 107.69 196.46 108.57 C 194.33 108.97 192.17 109.22 190.01 109.28 C 189.71 109.00 189.11 108.43 188.81 108.15 C 187.28 109.29 185.41 109.15 183.65 108.79 C 181.92 109.29 180.26 108.93 178.85 107.84 C 178.43 108.24 177.61 109.06 177.20 109.46 C 174.84 109.10 172.42 108.46 171.67 105.88 C 168.39 105.98 166.19 110.88 169.17 112.83 C 171.15 114.30 173.83 113.64 176.11 114.09 C 172.32 116.41 166.23 115.40 164.21 111.10 C 164.92 109.70 165.62 108.30 166.32 106.89 C 167.76 106.26 169.19 105.61 170.63 104.97 C 170.13 104.46 169.14 103.44 168.65 102.92 C 170.60 102.10 172.95 100.28 174.75 102.50 C 175.52 103.78 175.12 104.60 173.57 104.97 C 173.69 105.21 173.92 105.68 174.04 105.91 C 175.18 105.91 176.33 105.90 177.48 105.88 C 177.95 104.57 178.44 103.25 178.92 101.94 C 179.73 101.92 181.36 101.87 182.17 101.85 C 183.27 103.28 184.33 104.74 185.44 106.18 C 187.39 106.06 188.54 104.94 188.68 102.95 C 189.28 103.94 189.89 104.93 190.51 105.93 C 193.37 106.11 196.17 105.59 198.75 104.32 C 197.19 103.96 195.62 103.65 194.05 103.34 C 193.27 103.83 192.48 104.32 191.70 104.81 Z" />
<path d=" M 55.42 113.23 C 56.05 109.31 57.30 105.47 59.34 102.04 C 60.52 104.23 59.61 106.65 59.46 108.95 C 58.17 120.47 55.38 132.17 57.59 143.76 C 61.41 144.79 61.99 140.48 63.52 138.11 C 64.65 139.20 65.78 140.30 66.90 141.40 C 66.95 144.65 65.77 147.68 64.52 150.62 C 64.02 151.44 63.52 152.26 63.03 153.10 C 60.38 155.29 56.78 156.63 53.91 153.98 C 51.22 148.78 50.32 142.73 51.47 136.99 C 50.94 128.85 53.75 121.08 55.42 113.23 Z" />
<path d=" M 152.19 110.14 C 153.48 108.60 155.74 110.99 154.39 112.31 C 153.09 113.71 150.78 111.47 152.19 110.14 Z" />
<path d=" M 198.51 112.63 C 196.51 112.31 196.86 110.36 198.05 109.19 C 198.88 110.33 200.61 111.73 198.51 112.63 Z" />
<path d=" M 88.23 126.34 C 89.38 126.35 90.53 126.36 91.68 126.37 C 92.66 127.63 94.06 128.74 94.42 130.36 C 95.17 136.01 93.24 141.64 90.78 146.63 C 87.38 153.05 80.05 155.97 73.08 156.02 C 77.99 150.85 85.17 148.05 88.97 141.81 C 86.31 141.46 81.33 141.90 81.25 138.14 C 82.49 133.69 84.68 129.39 88.23 126.34 Z" />
<path d=" M 35.94 131.14 C 36.45 130.68 37.46 129.74 37.96 129.28 C 40.60 130.80 42.86 132.90 44.39 135.55 C 44.93 142.64 42.42 150.22 37.00 154.92 C 34.45 157.03 31.23 156.15 28.98 154.12 C 28.50 149.71 29.68 145.46 32.52 142.04 C 32.18 141.71 31.50 141.04 31.15 140.70 C 33.13 137.72 34.82 134.55 35.94 131.14 M 34.41 142.75 C 33.73 144.80 30.89 147.75 33.33 149.55 C 35.94 150.09 38.55 148.55 39.42 146.05 C 37.90 144.73 36.30 143.48 34.41 142.75 Z" />
</g>
</svg>
